# xmcd
# 
# Track frame offsets:
#     150
#     17566
#     28438
#     51733
#     60025
#     73979
#     86898
#     101081
#     113281
#     135209
#     151198
#     166492
#     180563
#     186621
# 
# Disc length: 2661
# 
# Revision: 3
# Processed by: cddbd v1.5.2PL0 Copyright (c) Steve Scherf et al.
# Submitted via: BonkEnc v1.0.15
# 
DISCID=bd0a630e
DTITLE=Simon and Garfunkel - Greatest Hits
DYEAR=0
DGENRE=Pop
TTITLE0=Mrs. Robinson
TTITLE1=For Emily, Whenever I May Find Her (Live)
TTITLE2=The Boxer
TTITLE3=The 59th Street Bridge Song (Live)
TTITLE4=The Sound of Silence (Live)
TTITLE5=I am a Rock
TTITLE6=Scarborough Fair Canticle
TTITLE7=Homeward Bound (Live)
TTITLE8=Bridge Over Troubled Water (Live)
TTITLE9=America
TTITLE10=Kathy's Song (Live)
TTITLE11=El Condor Pasa
TTITLE12=Bookends
TTITLE13=Cecilia
EXTD=
EXTT0=
EXTT1=
EXTT2=
EXTT3=
EXTT4=
EXTT5=
EXTT6=
EXTT7=
EXTT8=
EXTT9=
EXTT10=
EXTT11=
EXTT12=
EXTT13=
PLAYORDER=
